<svg width="200" height="200" viewBox="0 0 200 200" fill="none" xmlns="http://www.w3.org/2000/svg">
<g filter="url(#filter0_d_195_16068)">
<circle cx="99.6179" cy="86.9113" r="70.6472" fill="#171A1C"/>
<path d="M90.4568 133.325L87.7514 141.661L85.676 140.988L85.3305 134.586L81.3387 139.58L79.2866 138.914L81.9919 130.578L83.5427 131.081L81.4995 137.377L86.0262 131.887L86.5275 132.049L87.0144 139.167L89.0576 132.87L90.4568 133.325Z" fill="white"/>
<path d="M75.7332 127.373L72.3425 132.814L71.0837 132.03L74.4744 126.589L75.7332 127.373ZM71.1712 133.326C71.5873 133.585 71.7257 134.105 71.4729 134.511C71.2136 134.927 70.6862 135.032 70.27 134.772C69.8539 134.513 69.7155 133.993 69.9748 133.577C70.2276 133.171 70.755 133.067 71.1712 133.326Z" fill="white"/>
<path d="M70.1699 123.567L65.9267 128.373L64.8148 127.391L65.6099 126.491C64.7712 126.829 64.0045 126.79 63.1878 126.085L64.1046 125.047C65.0867 125.898 65.9507 126.105 66.8512 125.085L69.058 122.585L70.1699 123.567Z" fill="white"/>
<path d="M62.8755 116.007C63.5757 116.953 63.6986 118.066 62.6247 118.861C61.4227 119.751 60.1286 118.909 59.0346 117.431L58.5606 116.791L58.2945 116.988C57.6049 117.498 57.4351 117.99 57.9529 118.69C58.4123 119.31 58.934 119.397 59.4901 119.077L60.3434 120.23C59.0684 121.021 57.8585 120.437 57.0052 119.284C56.1519 118.132 55.9539 116.875 57.3628 115.832L60.7422 113.331L61.6101 114.503L60.9796 114.97C61.6709 114.977 62.2921 115.218 62.8755 116.007ZM61.8069 116.355C61.2672 115.626 60.4818 115.369 59.8217 115.858L59.3094 116.237L59.7615 116.848C60.4325 117.754 61.0697 118.182 61.7002 117.715C62.1338 117.395 62.2444 116.947 61.8069 116.355Z" fill="white"/>
<path d="M54.4666 99.3645C54.9434 101.191 54.0892 102.82 52.1322 103.331L52.0373 103.356C50.1159 103.858 48.4913 102.876 48.0299 101.108C47.6274 99.5664 48.1783 97.9403 50.3963 97.3612L50.8114 97.2529L51.9973 101.795C53.1591 101.441 53.6685 100.675 53.3898 99.6076C53.1638 98.7418 52.7022 98.3809 52.0694 98.432L51.7071 97.0443C53.0644 96.9054 54.0516 97.7752 54.4666 99.3645ZM51.0304 102.023L50.2222 98.9269C49.1734 99.2768 48.8414 99.9462 49.0736 100.836C49.2997 101.702 50.0326 102.131 51.0304 102.023Z" fill="white"/>
<path d="M52.8266 90.9429L43.467 91.5211L43.3756 90.0407L52.7352 89.4625L52.8266 90.9429Z" fill="white"/>
<path d="M53.9733 75.8477L47.1699 76.3918L47.5955 74.8562L52.7573 74.544L48.4859 71.6431L48.8755 70.2373L54.4349 74.1821L53.9733 75.8477Z" fill="white"/>
<path d="M57.0245 67.1553L51.2756 64.3178L51.9321 62.9877L57.681 65.8252L57.0245 67.1553ZM50.6504 63.2027C50.4334 63.6423 49.93 63.8313 49.5013 63.6197C49.0616 63.4027 48.9055 62.8882 49.1225 62.4485C49.3395 62.0089 49.8429 61.8199 50.2826 62.0369C50.7113 62.2485 50.8674 62.763 50.6504 63.2027Z" fill="white"/>
<path d="M61.7731 59.3303C60.7915 60.6012 59.1474 60.8647 57.4982 59.5908L57.4206 59.5308C55.8006 58.2794 55.5141 56.5247 56.5332 55.2054C57.1702 54.3808 57.9457 54.1589 58.6674 54.2672L55.5437 51.8543L56.4504 50.6805L63.8717 56.413L62.965 57.5868L62.1113 56.9274C62.4059 57.5887 62.3501 58.5833 61.7731 59.3303ZM61.0666 58.3199C61.6961 57.505 61.6174 56.4839 60.4824 55.6072L60.4048 55.5473C59.2892 54.6855 58.3391 54.7725 57.6796 55.6262C57.0127 56.4896 57.2245 57.4587 58.3207 58.3054L58.3983 58.3654C59.5139 59.2271 60.4821 59.0766 61.0666 58.3199Z" fill="white"/>
<path d="M70.2712 50.4404C68.7846 51.6038 66.9501 51.4675 65.7035 49.8747L65.6431 49.7975C64.4192 48.2336 64.6747 46.3525 66.1131 45.2268C67.368 44.2447 69.0791 44.104 70.4919 45.9092L70.7563 46.2471L67.0592 49.1406C67.8457 50.066 68.7514 50.2289 69.6202 49.5489C70.3249 48.9974 70.4726 48.4304 70.1742 47.8701L71.3036 46.9862C71.9706 48.1764 71.5647 49.428 70.2712 50.4404ZM66.4665 48.3436L68.986 46.3717C68.2481 45.5483 67.5019 45.5097 66.7779 46.0763C66.0732 46.6278 65.9704 47.471 66.4665 48.3436Z" fill="white"/>
<path d="M79.5203 43.3613C80.5299 42.9164 80.8044 41.898 80.2756 40.6977L80.241 40.6192C79.7071 39.4077 78.7752 38.9343 77.7656 39.3791C76.756 39.824 76.4604 40.8249 76.9942 42.0364L77.0337 42.1262C77.5626 43.3264 78.4883 43.816 79.5203 43.3613ZM79.9737 44.4207C78.2462 45.1819 76.4386 44.5451 75.6527 42.7615L75.6131 42.6718C74.8124 40.8545 75.5686 39.0746 77.296 38.3135C79.0123 37.5572 80.8312 38.1891 81.622 39.9838L81.6616 40.0736C82.4672 41.902 81.7012 43.6595 79.9737 44.4207Z" fill="white"/>
<path d="M95.3742 41.9889L94.5601 30.6917L95.6605 30.6124L96.4746 41.9096L95.3742 41.9889Z" fill="white"/>
<path d="M108.859 40.5641L111.578 32.2319L113.652 32.9088L113.988 39.3106L117.988 34.3235L120.038 34.9927L117.32 43.3249L115.77 42.8191L117.823 36.5263L113.287 42.0091L112.786 41.8456L112.311 34.7276L110.258 41.0204L108.859 40.5641Z" fill="white"/>
<path d="M123.572 46.5395L126.972 41.1041L128.23 41.8906L124.83 47.326L123.572 46.5395ZM128.144 40.5938C127.728 40.3338 127.591 39.814 127.844 39.4087C128.104 38.993 128.632 38.8892 129.048 39.1492C129.463 39.4092 129.601 39.929 129.341 40.3447C129.087 40.7501 128.56 40.8538 128.144 40.5938Z" fill="white"/>
<path d="M129.131 50.3548L133.382 45.5559L134.493 46.5394L133.696 47.4387C134.535 47.1013 135.302 47.1417 136.118 47.8478L135.199 48.8847C134.218 48.0323 133.355 47.824 132.452 48.8426L130.242 51.3383L129.131 50.3548Z" fill="white"/>
<path d="M136.412 57.9273C135.713 56.9803 135.592 55.8663 136.668 55.0731C137.871 54.1853 139.164 55.0291 140.255 56.5088L140.728 57.15L140.995 56.9535C141.685 56.4441 141.856 55.9527 141.339 55.2523C140.881 54.6309 140.359 54.5434 139.803 54.8626L138.951 53.7084C140.227 52.9193 141.436 53.505 142.288 54.6592C143.139 55.8133 143.335 57.0701 141.924 58.1107L138.541 60.6067L137.675 59.4328L138.306 58.9671C137.615 58.9592 136.994 58.7165 136.412 57.9273ZM137.481 57.5803C138.02 58.3102 138.805 58.569 139.466 58.0814L139.979 57.703L139.527 57.0914C138.858 56.1839 138.221 55.7547 137.59 56.2204C137.156 56.5406 137.045 56.9884 137.481 57.5803Z" fill="white"/>
<path d="M144.795 74.5834C144.321 72.7561 145.178 71.1282 147.136 70.6205L147.231 70.5959C149.153 70.0974 150.776 71.0822 151.234 72.8502C151.634 74.3927 151.081 76.0179 148.862 76.5933L148.447 76.701L147.268 72.1565C146.106 72.5086 145.595 73.2742 145.872 74.3421C146.097 75.2083 146.558 75.5699 147.191 75.5198L147.551 76.9081C146.193 77.0448 145.207 76.1734 144.795 74.5834ZM148.235 71.931L149.038 75.0279C150.088 74.6798 150.421 74.0109 150.19 73.1209C149.966 72.2547 149.233 71.8241 148.235 71.931Z" fill="white"/>
<path d="M146.419 83.0071L155.779 82.4443L155.868 83.9249L146.508 84.4877L146.419 83.0071Z" fill="white"/>
<path d="M145.25 98.1007L152.054 97.5677L151.626 99.1027L146.464 99.4064L150.73 102.314L150.338 103.719L144.785 99.7656L145.25 98.1007Z" fill="white"/>
<path d="M142.183 106.788L147.927 109.635L147.268 110.964L141.524 108.117L142.183 106.788ZM148.55 110.751C148.768 110.312 149.272 110.124 149.7 110.336C150.139 110.554 150.295 111.069 150.077 111.508C149.859 111.947 149.355 112.136 148.916 111.918C148.488 111.706 148.332 111.191 148.55 110.751Z" fill="white"/>
<path d="M137.422 114.605C138.406 113.336 140.05 113.075 141.698 114.352L141.775 114.412C143.393 115.666 143.677 117.421 142.655 118.739C142.017 119.562 141.241 119.783 140.52 119.674L143.639 122.092L142.731 123.264L135.319 117.519L136.228 116.347L137.08 117.008C136.787 116.346 136.844 115.351 137.422 114.605ZM138.127 115.617C137.496 116.431 137.573 117.452 138.707 118.331L138.784 118.391C139.899 119.254 140.849 119.169 141.51 118.316C142.178 117.454 141.968 116.485 140.873 115.636L140.795 115.576C139.681 114.712 138.713 114.861 138.127 115.617Z" fill="white"/>
<path d="M128.908 123.481C130.397 122.32 132.231 122.46 133.475 124.054L133.535 124.132C134.756 125.697 134.498 127.578 133.058 128.702C131.801 129.682 130.09 129.819 128.68 128.012L128.416 127.674L132.118 124.786C131.333 123.859 130.427 123.695 129.558 124.374C128.852 124.924 128.703 125.491 129.001 126.052L127.87 126.934C127.205 125.742 127.613 124.491 128.908 123.481ZM132.709 125.584L130.187 127.552C130.923 128.377 131.669 128.416 132.394 127.851C133.1 127.301 133.204 126.458 132.709 125.584Z" fill="white"/>
<path d="M119.649 130.545C118.639 130.988 118.362 132.006 118.889 133.208L118.924 133.286C119.456 134.498 120.387 134.973 121.397 134.53C122.407 134.087 122.705 133.086 122.173 131.874L122.133 131.784C121.607 130.583 120.682 130.092 119.649 130.545ZM119.197 129.485C120.926 128.727 122.733 129.366 123.516 131.151L123.555 131.241C124.353 133.06 123.594 134.838 121.865 135.597C120.147 136.35 118.33 135.715 117.542 133.919L117.502 133.829C116.7 132 117.468 130.243 119.197 129.485Z" fill="white"/>
<path d="M103.791 131.892L104.587 143.19L103.487 143.268L102.691 131.969L103.791 131.892Z" fill="white"/>
<path d="M117.865 87.8468L88.8574 104.222L88.8574 71.4717L117.865 87.8468Z" fill="white"/>
</g>
<defs>
<filter id="filter0_d_195_16068" x="0.000284195" y="6.48499e-05" width="203.974" height="199.235" filterUnits="userSpaceOnUse" color-interpolation-filters="sRGB">
<feFlood flood-opacity="0" result="BackgroundImageFix"/>
<feColorMatrix in="SourceAlpha" type="matrix" values="0 0 0 0 0 0 0 0 0 0 0 0 0 0 0 0 0 0 127 0" result="hardAlpha"/>
<feOffset dy="12.7063"/>
<feGaussianBlur stdDeviation="14.4852"/>
<feComposite in2="hardAlpha" operator="out"/>
<feColorMatrix type="matrix" values="0 0 0 0 0.491667 0 0 0 0 0.129578 0 0 0 0 0.124965 0 0 0 0.13 0"/>
<feBlend mode="normal" in2="BackgroundImageFix" result="effect1_dropShadow_195_16068"/>
<feBlend mode="normal" in="SourceGraphic" in2="effect1_dropShadow_195_16068" result="shape"/>
</filter>
</defs>
</svg>
