<svg xmlns="http://www.w3.org/2000/svg" viewBox="0 0 164.77 59.15"><defs><style>.cls-1{fill:#333}.cls-2{fill:#9b3937}.cls-3{fill:#e9494a}</style></defs><title>LogoBB2B-color</title><g id="Capa_2" data-name="Capa 2"><g id="Capa_1-2" data-name="Capa 1"><path class="cls-1" d="M21.27 23.92c-2.06 1.82-5.09 2.72-9.08 2.72s-7-.9-9.09-2.72S0 19.24 0 15.32s1-6.79 3.1-8.6S8.2 4 12.19 4s7 .91 9.08 2.71 3.1 4.67 3.1 8.6-1.03 6.8-3.1 8.61zm-4.13-14c-1-1.22-2.67-1.82-5-1.82s-3.92.6-4.95 1.82a8.21 8.21 0 0 0-1.53 5.41 8.18 8.18 0 0 0 1.53 5.4q1.55 1.82 4.95 1.81t5-1.81a8.24 8.24 0 0 0 1.52-5.4 8.27 8.27 0 0 0-1.52-5.41zm25.21 15.59c0 .44-.27.66-.79.66H38.7a2.62 2.62 0 0 1-2.32-1.42l-1.92-3.13a4 4 0 0 0-3.6-2v5.65a.91.91 0 0 1-.93.92h-3.39a.86.86 0 0 1-.66-.26.9.9 0 0 1-.26-.66V5.4a.9.9 0 0 1 .27-.67.85.85 0 0 1 .65-.26h3.39a.87.87 0 0 1 .67.26.94.94 0 0 1 .26.67v10.75a3.62 3.62 0 0 0 3.6-2L35.91 11a2.52 2.52 0 0 1 .9-1 2.17 2.17 0 0 1 1.27-.4h2.86c.5 0 .76.2.76.59a2 2 0 0 1-.25.85l-2 4.12a5.59 5.59 0 0 1-1.36 1.77 4.24 4.24 0 0 1-1.86.95 5.93 5.93 0 0 1 3.22 2.73l2.57 4.16a1.62 1.62 0 0 1 .33.74zM43 6.42V5.9a1.74 1.74 0 0 1 .46-1.27 1.72 1.72 0 0 1 1.28-.47h1.87a1.75 1.75 0 0 1 1.28.47 1.69 1.69 0 0 1 .46 1.27v.52a1.72 1.72 0 0 1-.46 1.27 1.72 1.72 0 0 1-1.28.47h-1.89a1.71 1.71 0 0 1-1.27-.47A1.69 1.69 0 0 1 43 6.42zm0 18.83V10.88a.86.86 0 0 1 .26-.66A.93.93 0 0 1 44 10h3.39a.9.9 0 0 1 .67.27.88.88 0 0 1 .25.65v14.33a.86.86 0 0 1-.26.66.89.89 0 0 1-.66.26H44a.87.87 0 0 1-.92-.92zm6.57-11.08q0-4.89 7.89-4.89 8.29 0 8.29 4.34a.91.91 0 0 1-.92.93h-2.26a2.29 2.29 0 0 1-1.83-.92c-.49-.61-1.47-.91-2.92-.91-2 0-3 .48-3 1.45 0 .45.39.83 1.18 1.13a17.08 17.08 0 0 0 2.86.8 34.59 34.59 0 0 1 3.36.87 7 7 0 0 1 2.86 1.69 3.93 3.93 0 0 1 1.17 2.93q0 4.89-8.32 4.89t-8.33-4.33a.91.91 0 0 1 .94-.94h2.25a2.25 2.25 0 0 1 1.83.91 3.67 3.67 0 0 0 2.93.92c2.31 0 3.46-.49 3.46-1.45q0-.69-1.17-1.14a19.3 19.3 0 0 0-2.84-.81c-1.13-.24-2.25-.53-3.37-.88a7 7 0 0 1-2.85-1.69 3.88 3.88 0 0 1-1.21-2.9zm19 10.91a4.51 4.51 0 0 1-2-3.93 4.44 4.44 0 0 1 2-3.91 9 9 0 0 1 5.17-1.36h5a3.34 3.34 0 0 0-.74-2.47 3.82 3.82 0 0 0-2.6-.69 3.19 3.19 0 0 0-2.6.91 2.31 2.31 0 0 1-1.84.92h-2.25a.89.89 0 0 1-.67-.27.87.87 0 0 1-.27-.66q0-4.33 8.25-4.34a9.52 9.52 0 0 1 5.78 1.61 5.79 5.79 0 0 1 2.18 5v9.37a.87.87 0 0 1-.92.92h-2.92a.94.94 0 0 1-.67-.26.92.92 0 0 1-.25-.66v-.47a9.2 9.2 0 0 1-5.52 1.7 8.78 8.78 0 0 1-5.13-1.41zm3.86-5.25a1.66 1.66 0 0 0-.62 1.33 1.69 1.69 0 0 0 .64 1.35 2.74 2.74 0 0 0 1.8.53 8.41 8.41 0 0 0 4.5-1.36v-2.36H74.1a2.52 2.52 0 0 0-1.67.51zm13.73 5.42V10.52a.92.92 0 0 1 .26-.67.9.9 0 0 1 .66-.27h3.39a.89.89 0 0 1 .67.27.92.92 0 0 1 .26.67v1a9.66 9.66 0 0 1 2.14-1.62 5.23 5.23 0 0 1 2.53-.57 5.93 5.93 0 0 1 5.35 2.91c1.87-1.95 3.8-2.92 5.77-2.92a6.25 6.25 0 0 1 4.68 1.79c1.14 1.18 1.71 3 1.71 5.5v8.69a.87.87 0 0 1-.92.92h-3.37a.94.94 0 0 1-.68-.26.93.93 0 0 1-.26-.66v-8.74q0-3.63-2.64-3.62c-1.07 0-2.17.77-3.31 2.32a9.47 9.47 0 0 1 .09 1.3v8.69a.89.89 0 0 1-.92.92h-3.38a.92.92 0 0 1-.67-.26.9.9 0 0 1-.27-.66v-8.69c0-2.42-.87-3.63-2.63-3.62-1.12 0-2.2.72-3.22 2.17v10.14a.87.87 0 0 1-.27.66.89.89 0 0 1-.66.26h-3.39a.89.89 0 0 1-.92-.92zM8.09 33.27a7.86 7.86 0 0 1 4.83 1.3 4.62 4.62 0 0 1 1.73 3.93 4.28 4.28 0 0 1-.87 2.67 4.46 4.46 0 0 1-2.36 1.57 4.84 4.84 0 0 1 3 1.71 4.89 4.89 0 0 1 1.13 3.18 5.06 5.06 0 0 1-1.73 4.11 7.06 7.06 0 0 1-4.63 1.43H.05V52l2.23-.18V34.66l-2.23-.18v-1.21h8zM3.9 42.19h4.58a5.2 5.2 0 0 0 3.35-.95A3.38 3.38 0 0 0 13 38.45a3.33 3.33 0 0 0-1.26-2.84 6 6 0 0 0-3.66-1H3.9zm0 1.38v8.22h5.25a5.09 5.09 0 0 0 3.46-1.09 3.78 3.78 0 0 0 1.26-3 4 4 0 0 0-1.14-2.94 4.51 4.51 0 0 0-3.32-1.15zm14.58 1.99a7.91 7.91 0 0 1 1.79-5.36A5.9 5.9 0 0 1 25 38.11a5.93 5.93 0 0 1 4.76 2.09 8 8 0 0 1 1.79 5.36V46a8 8 0 0 1-1.78 5.36 5.93 5.93 0 0 1-4.77 2.1 6 6 0 0 1-4.77-2.09A7.91 7.91 0 0 1 18.48 46zm1.64.45a7 7 0 0 0 1.3 4.32A4.26 4.26 0 0 0 25 52.08a4.22 4.22 0 0 0 3.58-1.75A7 7 0 0 0 29.92 46v-.45a7 7 0 0 0-1.3-4.3A4.26 4.26 0 0 0 25 39.5a4.21 4.21 0 0 0-3.59 1.76 7 7 0 0 0-1.3 4.3zm14.11-.45A7.91 7.91 0 0 1 36 40.2a5.9 5.9 0 0 1 4.74-2.09 5.93 5.93 0 0 1 4.76 2.09 8 8 0 0 1 1.79 5.36V46a8 8 0 0 1-1.78 5.36 5.93 5.93 0 0 1-4.74 2.09A6 6 0 0 1 36 51.37 7.91 7.91 0 0 1 34.23 46zm1.64.45a7 7 0 0 0 1.3 4.32 4.58 4.58 0 0 0 7.2 0 7 7 0 0 0 1.3-4.33v-.45a7 7 0 0 0-1.3-4.3 4.26 4.26 0 0 0-3.61-1.76 4.21 4.21 0 0 0-3.59 1.76 7 7 0 0 0-1.3 4.3zm24.84-3.07h-1.34l-.19-2.09a4.05 4.05 0 0 0-1.55-1 6 6 0 0 0-2.16-.36 4 4 0 0 0-2.68.77 2.33 2.33 0 0 0-.9 1.81 2.17 2.17 0 0 0 .77 1.7A7.45 7.45 0 0 0 55.75 45a10.21 10.21 0 0 1 4 1.61A3.33 3.33 0 0 1 61 49.33a3.58 3.58 0 0 1-1.5 3 6.33 6.33 0 0 1-3.95 1.14 9.11 9.11 0 0 1-3-.46 7.2 7.2 0 0 1-2.33-1.29v-3h1.32l.24 2.1a3.69 3.69 0 0 0 1.66 1 7.3 7.3 0 0 0 2.1.3 4.54 4.54 0 0 0 2.8-.78 2.32 2.32 0 0 0 1-1.89 2.39 2.39 0 0 0-.85-1.82 7 7 0 0 0-3.08-1.27 10.4 10.4 0 0 1-3.92-1.52 3.14 3.14 0 0 1-1.28-2.66 3.57 3.57 0 0 1 1.44-2.87 5.79 5.79 0 0 1 3.78-1.16 8.59 8.59 0 0 1 3 .49A6.17 6.17 0 0 1 60.64 40zm7.04-8.35v3.79H71v1.34h-3.25v9.64a3.13 3.13 0 0 0 .53 2 1.75 1.75 0 0 0 1.4.61h.77c.25 0 .54-.06.87-.12l.25 1.22a4.13 4.13 0 0 1-1 .27 6.72 6.72 0 0 1-1.18.1 3.06 3.06 0 0 1-2.43-1 4.66 4.66 0 0 1-.86-3.11v-9.61h-2.55v-1.34h2.55v-3.79zM73.9 52l2.23-.18v-12l-2.23-.22v-1.22h3.86v13.41L80 52v1.2h-6.1zm3.86-17.83h-1.63v-2.3h1.63zM82.43 52l2.23-.18v-12l-2.23-.17v-1.27h3.68l.15 2.62a5.08 5.08 0 0 1 4.79-2.85 4.58 4.58 0 0 1 3.66 1.46A7 7 0 0 1 96 44.16v7.63l2.2.21v1.2h-6.1V52l2.23-.18v-7.64a5.38 5.38 0 0 0-1-3.6 3.44 3.44 0 0 0-2.7-1 4.2 4.2 0 0 0-2.81.91 5 5 0 0 0-1.57 2.41v8.94l2.23.18v1.2h-6.1zm18.27-6.1a9.59 9.59 0 0 1 1.51-5.67 4.85 4.85 0 0 1 4.19-2.12 5.22 5.22 0 0 1 2.73.69 5.47 5.47 0 0 1 1.87 1.94l.19-2.36h1.38V53a6.33 6.33 0 0 1-1.55 4.51 5.6 5.6 0 0 1-4.3 1.66 11.15 11.15 0 0 1-2.28-.26 9.15 9.15 0 0 1-2.11-.71l.44-1.39a8.82 8.82 0 0 0 3.92.89 3.94 3.94 0 0 0 3.17-1.24A5.15 5.15 0 0 0 111 53v-1.89a5.27 5.27 0 0 1-1.9 1.74 5.66 5.66 0 0 1-2.7.61 5 5 0 0 1-4.17-2 8.58 8.58 0 0 1-1.5-5.29zm1.64.29a7.38 7.38 0 0 0 1.09 4.25 3.64 3.64 0 0 0 3.24 1.6 4.54 4.54 0 0 0 2.66-.73 4.74 4.74 0 0 0 1.64-2v-6.86a5.32 5.32 0 0 0-1.57-2.11 4.25 4.25 0 0 0-2.7-.81 3.59 3.59 0 0 0-3.26 1.77 8.68 8.68 0 0 0-1.1 4.6zM124 33.27a7.86 7.86 0 0 1 4.83 1.3 4.59 4.59 0 0 1 1.73 3.93 4.33 4.33 0 0 1-.86 2.67 4.5 4.5 0 0 1-2.36 1.57 4.92 4.92 0 0 1 4.08 4.89 5.05 5.05 0 0 1-1.72 4.11 7.08 7.08 0 0 1-4.63 1.43H116V52l2.23-.18V34.66l-2.23-.18v-1.21h8zm-4.18 8.92h4.58a5.17 5.17 0 0 0 3.34-.95 3.35 3.35 0 0 0 1.18-2.79 3.33 3.33 0 0 0-1.26-2.84 6 6 0 0 0-3.66-1h-4.18zm0 1.38v8.22h5.25a5.11 5.11 0 0 0 3.46-1.09 3.78 3.78 0 0 0 1.25-3 4 4 0 0 0-1.14-2.94 4.48 4.48 0 0 0-3.31-1.15zm14.64 9.6v-1.26l6.54-7.39a20.43 20.43 0 0 0 2.56-3.42 5.47 5.47 0 0 0 .75-2.63 4.14 4.14 0 0 0-1.06-3 3.84 3.84 0 0 0-2.95-1.13 4.51 4.51 0 0 0-3.45 1.26 4.74 4.74 0 0 0-1.19 3.4h-1.52v-.08a5.59 5.59 0 0 1 1.61-4.21 6.07 6.07 0 0 1 4.53-1.71 5.72 5.72 0 0 1 4.11 1.47 5.28 5.28 0 0 1 1.54 4 6.38 6.38 0 0 1-1 3.33 27.8 27.8 0 0 1-2.93 3.72l-5.5 6.2v.07h8.68l.14-2.8h1.45v4.18zm22.88-19.9a7.91 7.91 0 0 1 4.84 1.3 4.62 4.62 0 0 1 1.73 3.93 4.28 4.28 0 0 1-.87 2.67 4.5 4.5 0 0 1-2.36 1.57 4.79 4.79 0 0 1 2.95 1.71 4.85 4.85 0 0 1 1.14 3.18 5.06 5.06 0 0 1-1.77 4.11 7.08 7.08 0 0 1-4.63 1.43h-9.07V52l2.23-.18V34.66l-2.23-.18v-1.21h8zm-4.18 8.92h4.58a5.17 5.17 0 0 0 3.34-.95 3.35 3.35 0 0 0 1.18-2.79 3.32 3.32 0 0 0-1.26-2.84 6 6 0 0 0-3.67-1h-4.18zm0 1.38v8.22h5.25a5.09 5.09 0 0 0 3.46-1.09 3.78 3.78 0 0 0 1.26-3 4 4 0 0 0-1.13-2.98 4.48 4.48 0 0 0-3.31-1.15z"/><path class="cls-2" d="M118.47 15.21v8.66c0 2.69 1.29 3.38 3.67 2.12l25.45-14.94-12.4-8.36s-12.45 7.16-14 8.2-2.72 1.63-2.72 4.32z"/><path class="cls-2" d="M118.47 15.21v8.66c0 2.69 1.29 3.38 3.67 2.12l25.45-14.94-12.4-8.36s-12.45 7.16-14 8.2-2.72 1.63-2.72 4.32z"/><path class="cls-3" d="M159.46 10.89c-.08-.05-15.64-9.49-17.15-10.27s-2.09-.88-3.6 0l-11.41 6.7s28.37 17 31.18 18.67c2.38 1.26 3.67.57 3.67-2.12v-8.66c0-2.69-1.15-3.29-2.69-4.32z"/></g></g></svg>